<?xml version="1.0" encoding="UTF-8" standalone="no"?>
<!DOCTYPE svg PUBLIC "-//W3C//DTD SVG 1.1//EN"
 "http://www.w3.org/Graphics/SVG/1.1/DTD/svg11.dtd">
<!-- Generated by graphviz version 2.43.0 (0)
 -->
<!-- Title: snakemake_dag Pages: 1 -->
<svg width="600pt" height="548pt"
 viewBox="0.00 0.00 600.44 548.00" xmlns="http://www.w3.org/2000/svg" xmlns:xlink="http://www.w3.org/1999/xlink">
<g id="graph0" class="graph" transform="scale(1 1) rotate(0) translate(4 544)">
<title>snakemake_dag</title>
<polygon fill="white" stroke="transparent" points="-4,4 -4,-544 596.44,-544 596.44,4 -4,4"/>
<!-- 0 -->
<g id="node1" class="node">
<title>0</title>
<path fill="none" stroke="#567bd8" stroke-width="2" d="M376.5,-36C376.5,-36 346.5,-36 346.5,-36 340.5,-36 334.5,-30 334.5,-24 334.5,-24 334.5,-12 334.5,-12 334.5,-6 340.5,0 346.5,0 346.5,0 376.5,0 376.5,0 382.5,0 388.5,-6 388.5,-12 388.5,-12 388.5,-24 388.5,-24 388.5,-30 382.5,-36 376.5,-36"/>
<text text-anchor="middle" x="361.5" y="-15.5" font-family="sans" font-size="10.00">all</text>
</g>
<!-- 1 -->
<g id="node2" class="node">
<title>1</title>
<path fill="none" stroke="#56d86b" stroke-width="2" d="M93,-108C93,-108 12,-108 12,-108 6,-108 0,-102 0,-96 0,-96 0,-84 0,-84 0,-78 6,-72 12,-72 12,-72 93,-72 93,-72 99,-72 105,-78 105,-84 105,-84 105,-96 105,-96 105,-102 99,-108 93,-108"/>
<text text-anchor="middle" x="52.5" y="-87.5" font-family="sans" font-size="10.00">qiime_table_export</text>
</g>
<!-- 1&#45;&gt;0 -->
<g id="edge1" class="edge">
<title>1&#45;&gt;0</title>
<path fill="none" stroke="grey" stroke-width="2" d="M105.21,-74.33C108.35,-73.52 111.46,-72.74 114.5,-72 188.53,-53.92 275.85,-35.97 324.32,-26.3"/>
<polygon fill="grey" stroke="grey" stroke-width="2" points="325.21,-29.69 334.34,-24.31 323.85,-22.82 325.21,-29.69"/>
</g>
<!-- 2 -->
<g id="node3" class="node">
<title>2</title>
<path fill="none" stroke="#56d8a9" stroke-width="2" d="M330,-252C330,-252 271,-252 271,-252 265,-252 259,-246 259,-240 259,-240 259,-228 259,-228 259,-222 265,-216 271,-216 271,-216 330,-216 330,-216 336,-216 342,-222 342,-228 342,-228 342,-240 342,-240 342,-246 336,-252 330,-252"/>
<text text-anchor="middle" x="300.5" y="-231.5" font-family="sans" font-size="10.00">qiime_denoise</text>
</g>
<!-- 2&#45;&gt;1 -->
<g id="edge7" class="edge">
<title>2&#45;&gt;1</title>
<path fill="none" stroke="grey" stroke-width="2" d="M258.84,-225.23C224.62,-217.51 175.87,-203.4 138.5,-180 111.57,-163.14 87.06,-136.06 71.15,-116.2"/>
<polygon fill="grey" stroke="grey" stroke-width="2" points="73.8,-113.9 64.88,-108.17 68.28,-118.21 73.8,-113.9"/>
</g>
<!-- 8 -->
<g id="node9" class="node">
<title>8</title>
<path fill="none" stroke="#88d856" stroke-width="2" d="M215,-180C215,-180 160,-180 160,-180 154,-180 148,-174 148,-168 148,-168 148,-156 148,-156 148,-150 154,-144 160,-144 160,-144 215,-144 215,-144 221,-144 227,-150 227,-156 227,-156 227,-168 227,-168 227,-174 221,-180 215,-180"/>
<text text-anchor="middle" x="187.5" y="-159.5" font-family="sans" font-size="10.00">qiime_classify</text>
</g>
<!-- 2&#45;&gt;8 -->
<g id="edge13" class="edge">
<title>2&#45;&gt;8</title>
<path fill="none" stroke="grey" stroke-width="2" d="M272.86,-215.88C258.08,-206.72 239.71,-195.34 223.8,-185.48"/>
<polygon fill="grey" stroke="grey" stroke-width="2" points="225.59,-182.48 215.25,-180.19 221.91,-188.43 225.59,-182.48"/>
</g>
<!-- 9 -->
<g id="node10" class="node">
<title>9</title>
<path fill="none" stroke="#d8bc56" stroke-width="2" d="M395,-180C395,-180 296,-180 296,-180 290,-180 284,-174 284,-168 284,-168 284,-156 284,-156 284,-150 290,-144 296,-144 296,-144 395,-144 395,-144 401,-144 407,-150 407,-156 407,-156 407,-168 407,-168 407,-174 401,-180 395,-180"/>
<text text-anchor="middle" x="345.5" y="-159.5" font-family="sans" font-size="10.00">qiime_rep_seqs_export</text>
</g>
<!-- 2&#45;&gt;9 -->
<g id="edge14" class="edge">
<title>2&#45;&gt;9</title>
<path fill="none" stroke="grey" stroke-width="2" d="M311.62,-215.7C316.86,-207.56 323.2,-197.69 328.98,-188.7"/>
<polygon fill="grey" stroke="grey" stroke-width="2" points="332.04,-190.41 334.5,-180.1 326.15,-186.62 332.04,-190.41"/>
</g>
<!-- 11 -->
<g id="node12" class="node">
<title>11</title>
<path fill="none" stroke="#afd856" stroke-width="2" d="M361.5,-108C361.5,-108 281.5,-108 281.5,-108 275.5,-108 269.5,-102 269.5,-96 269.5,-96 269.5,-84 269.5,-84 269.5,-78 275.5,-72 281.5,-72 281.5,-72 361.5,-72 361.5,-72 367.5,-72 373.5,-78 373.5,-84 373.5,-84 373.5,-96 373.5,-96 373.5,-102 367.5,-108 361.5,-108"/>
<text text-anchor="middle" x="321.5" y="-87.5" font-family="sans" font-size="10.00">qiime_taxa_barplot</text>
</g>
<!-- 2&#45;&gt;11 -->
<g id="edge16" class="edge">
<title>2&#45;&gt;11</title>
<path fill="none" stroke="grey" stroke-width="2" d="M288.82,-215.67C278.12,-197.54 265.25,-168.38 274.5,-144 278.47,-133.54 285.55,-123.83 293.03,-115.65"/>
<polygon fill="grey" stroke="grey" stroke-width="2" points="295.73,-117.89 300.23,-108.3 290.73,-112.99 295.73,-117.89"/>
</g>
<!-- 12 -->
<g id="node13" class="node">
<title>12</title>
<path fill="none" stroke="#56c1d8" stroke-width="2" d="M565.5,-180C565.5,-180 437.5,-180 437.5,-180 431.5,-180 425.5,-174 425.5,-168 425.5,-168 425.5,-156 425.5,-156 425.5,-150 431.5,-144 437.5,-144 437.5,-144 565.5,-144 565.5,-144 571.5,-144 577.5,-150 577.5,-156 577.5,-156 577.5,-168 577.5,-168 577.5,-174 571.5,-180 565.5,-180"/>
<text text-anchor="middle" x="501.5" y="-159.5" font-family="sans" font-size="10.00">qiime_denoise_stats_visualize</text>
</g>
<!-- 2&#45;&gt;12 -->
<g id="edge18" class="edge">
<title>2&#45;&gt;12</title>
<path fill="none" stroke="grey" stroke-width="2" d="M342.15,-218.5C371.22,-208.37 410.44,-194.71 442.7,-183.48"/>
<polygon fill="grey" stroke="grey" stroke-width="2" points="444.17,-186.67 452.46,-180.08 441.87,-180.06 444.17,-186.67"/>
</g>
<!-- 3 -->
<g id="node4" class="node">
<title>3</title>
<path fill="none" stroke="#d85656" stroke-width="2" d="M345.5,-324C345.5,-324 303.5,-324 303.5,-324 297.5,-324 291.5,-318 291.5,-312 291.5,-312 291.5,-300 291.5,-300 291.5,-294 297.5,-288 303.5,-288 303.5,-288 345.5,-288 345.5,-288 351.5,-288 357.5,-294 357.5,-300 357.5,-300 357.5,-312 357.5,-312 357.5,-318 351.5,-324 345.5,-324"/>
<text text-anchor="middle" x="324.5" y="-303.5" font-family="sans" font-size="10.00">qiime_trim</text>
</g>
<!-- 3&#45;&gt;2 -->
<g id="edge8" class="edge">
<title>3&#45;&gt;2</title>
<path fill="none" stroke="grey" stroke-width="2" d="M318.57,-287.7C315.89,-279.9 312.67,-270.51 309.7,-261.83"/>
<polygon fill="grey" stroke="grey" stroke-width="2" points="312.92,-260.43 306.36,-252.1 306.3,-262.7 312.92,-260.43"/>
</g>
<!-- 4 -->
<g id="node5" class="node">
<title>4</title>
<path fill="none" stroke="#569ad8" stroke-width="2" d="M382,-396C382,-396 327,-396 327,-396 321,-396 315,-390 315,-384 315,-384 315,-372 315,-372 315,-366 321,-360 327,-360 327,-360 382,-360 382,-360 388,-360 394,-366 394,-372 394,-372 394,-384 394,-384 394,-390 388,-396 382,-396"/>
<text text-anchor="middle" x="354.5" y="-375.5" font-family="sans" font-size="10.00">qiime_demux</text>
</g>
<!-- 4&#45;&gt;3 -->
<g id="edge9" class="edge">
<title>4&#45;&gt;3</title>
<path fill="none" stroke="grey" stroke-width="2" d="M347.08,-359.7C343.71,-351.81 339.63,-342.3 335.88,-333.55"/>
<polygon fill="grey" stroke="grey" stroke-width="2" points="338.99,-331.92 331.83,-324.1 332.55,-334.67 338.99,-331.92"/>
</g>
<!-- 10 -->
<g id="node11" class="node">
<title>10</title>
<path fill="none" stroke="#d89c56" stroke-width="2" d="M544.5,-252C544.5,-252 470.5,-252 470.5,-252 464.5,-252 458.5,-246 458.5,-240 458.5,-240 458.5,-228 458.5,-228 458.5,-222 464.5,-216 470.5,-216 470.5,-216 544.5,-216 544.5,-216 550.5,-216 556.5,-222 556.5,-228 556.5,-228 556.5,-240 556.5,-240 556.5,-246 550.5,-252 544.5,-252"/>
<text text-anchor="middle" x="507.5" y="-231.5" font-family="sans" font-size="10.00">qiime_summarize</text>
</g>
<!-- 4&#45;&gt;10 -->
<g id="edge15" class="edge">
<title>4&#45;&gt;10</title>
<path fill="none" stroke="grey" stroke-width="2" d="M372.96,-359.87C400.07,-334.71 450.77,-287.65 481.6,-259.04"/>
<polygon fill="grey" stroke="grey" stroke-width="2" points="484.03,-261.56 488.98,-252.19 479.27,-256.43 484.03,-261.56"/>
</g>
<!-- 5 -->
<g id="node6" class="node">
<title>5</title>
<path fill="none" stroke="#56d88a" stroke-width="2" d="M381.5,-468C381.5,-468 327.5,-468 327.5,-468 321.5,-468 315.5,-462 315.5,-456 315.5,-456 315.5,-444 315.5,-444 315.5,-438 321.5,-432 327.5,-432 327.5,-432 381.5,-432 381.5,-432 387.5,-432 393.5,-438 393.5,-444 393.5,-444 393.5,-456 393.5,-456 393.5,-462 387.5,-468 381.5,-468"/>
<text text-anchor="middle" x="354.5" y="-447.5" font-family="sans" font-size="10.00">qiime_import</text>
</g>
<!-- 5&#45;&gt;4 -->
<g id="edge10" class="edge">
<title>5&#45;&gt;4</title>
<path fill="none" stroke="grey" stroke-width="2" d="M354.5,-431.7C354.5,-423.98 354.5,-414.71 354.5,-406.11"/>
<polygon fill="grey" stroke="grey" stroke-width="2" points="358,-406.1 354.5,-396.1 351,-406.1 358,-406.1"/>
</g>
<!-- 6 -->
<g id="node7" class="node">
<title>6</title>
<path fill="none" stroke="#56d8d0" stroke-width="2" d="M390.5,-540C390.5,-540 318.5,-540 318.5,-540 312.5,-540 306.5,-534 306.5,-528 306.5,-528 306.5,-516 306.5,-516 306.5,-510 312.5,-504 318.5,-504 318.5,-504 390.5,-504 390.5,-504 396.5,-504 402.5,-510 402.5,-516 402.5,-516 402.5,-528 402.5,-528 402.5,-534 396.5,-540 390.5,-540"/>
<text text-anchor="middle" x="354.5" y="-519.5" font-family="sans" font-size="10.00">subsample_reads</text>
</g>
<!-- 6&#45;&gt;5 -->
<g id="edge11" class="edge">
<title>6&#45;&gt;5</title>
<path fill="none" stroke="grey" stroke-width="2" d="M354.5,-503.7C354.5,-495.98 354.5,-486.71 354.5,-478.11"/>
<polygon fill="grey" stroke="grey" stroke-width="2" points="358,-478.1 354.5,-468.1 351,-478.1 358,-478.1"/>
</g>
<!-- 7 -->
<g id="node8" class="node">
<title>7</title>
<path fill="none" stroke="#ced856" stroke-width="2" d="M239.5,-108C239.5,-108 135.5,-108 135.5,-108 129.5,-108 123.5,-102 123.5,-96 123.5,-96 123.5,-84 123.5,-84 123.5,-78 129.5,-72 135.5,-72 135.5,-72 239.5,-72 239.5,-72 245.5,-72 251.5,-78 251.5,-84 251.5,-84 251.5,-96 251.5,-96 251.5,-102 245.5,-108 239.5,-108"/>
<text text-anchor="middle" x="187.5" y="-87.5" font-family="sans" font-size="10.00">qiime_taxonomy_export</text>
</g>
<!-- 7&#45;&gt;0 -->
<g id="edge2" class="edge">
<title>7&#45;&gt;0</title>
<path fill="none" stroke="grey" stroke-width="2" d="M230.07,-71.88C259.13,-60.18 297.25,-44.85 324.95,-33.7"/>
<polygon fill="grey" stroke="grey" stroke-width="2" points="326.31,-36.93 334.28,-29.95 323.69,-30.44 326.31,-36.93"/>
</g>
<!-- 8&#45;&gt;7 -->
<g id="edge12" class="edge">
<title>8&#45;&gt;7</title>
<path fill="none" stroke="grey" stroke-width="2" d="M187.5,-143.7C187.5,-135.98 187.5,-126.71 187.5,-118.11"/>
<polygon fill="grey" stroke="grey" stroke-width="2" points="191,-118.1 187.5,-108.1 184,-118.1 191,-118.1"/>
</g>
<!-- 8&#45;&gt;11 -->
<g id="edge17" class="edge">
<title>8&#45;&gt;11</title>
<path fill="none" stroke="grey" stroke-width="2" d="M220.28,-143.88C238.13,-134.55 260.4,-122.92 279.5,-112.94"/>
<polygon fill="grey" stroke="grey" stroke-width="2" points="281.35,-115.92 288.59,-108.19 278.11,-109.72 281.35,-115.92"/>
</g>
<!-- 9&#45;&gt;0 -->
<g id="edge3" class="edge">
<title>9&#45;&gt;0</title>
<path fill="none" stroke="grey" stroke-width="2" d="M361.54,-143.85C369.51,-134.12 378.33,-121.27 382.5,-108 389.01,-87.3 382.58,-63.33 375.18,-45.49"/>
<polygon fill="grey" stroke="grey" stroke-width="2" points="378.32,-43.95 371.04,-36.26 371.94,-46.82 378.32,-43.95"/>
</g>
<!-- 10&#45;&gt;0 -->
<g id="edge4" class="edge">
<title>10&#45;&gt;0</title>
<path fill="none" stroke="grey" stroke-width="2" d="M548.18,-215.88C563.02,-207.41 578.18,-195.59 586.5,-180 594.03,-165.88 594.61,-157.79 586.5,-144 545.82,-74.86 451.54,-41.22 398.84,-27.29"/>
<polygon fill="grey" stroke="grey" stroke-width="2" points="399.44,-23.83 388.89,-24.76 397.72,-30.61 399.44,-23.83"/>
</g>
<!-- 11&#45;&gt;0 -->
<g id="edge5" class="edge">
<title>11&#45;&gt;0</title>
<path fill="none" stroke="grey" stroke-width="2" d="M331.39,-71.7C335.99,-63.64 341.56,-53.89 346.65,-44.98"/>
<polygon fill="grey" stroke="grey" stroke-width="2" points="349.8,-46.52 351.73,-36.1 343.73,-43.05 349.8,-46.52"/>
</g>
<!-- 12&#45;&gt;0 -->
<g id="edge6" class="edge">
<title>12&#45;&gt;0</title>
<path fill="none" stroke="grey" stroke-width="2" d="M484.61,-143.87C459.91,-118.82 413.8,-72.05 385.56,-43.41"/>
<polygon fill="grey" stroke="grey" stroke-width="2" points="387.96,-40.85 378.45,-36.19 382.98,-45.77 387.96,-40.85"/>
</g>
</g>
</svg>
